
<svg xmlns="http://www.w3.org/2000/svg" xmlns:xlink="http://www.w3.org/1999/xlink" preserveAspectRatio="xMidYMid meet" version="1.0" viewBox="0.0 -1.7 493.4 226.1" zoomAndPan="magnify" style="fill: rgb(0, 0, 0);" original_string_length="23275"><defs><clipPath id="__id0_ss2qblnjkw"><path d="M 0 90 L 152 90 L 152 224.410156 L 0 224.410156 Z M 0 90"/></clipPath><clipPath id="__id1_ss2qblnjkw"><path d="M 360 30 L 493.441406 30 L 493.441406 154 L 360 154 Z M 360 30"/></clipPath></defs><g><g id="__id2_ss2qblnjkw"><path d="M 478.316406 136.769531 C 476.925781 117.039062 456.011719 102.867188 442.058594 91.730469 C 421.074219 74.980469 401.277344 57.207031 378.800781 42.359375 C 367.023438 34.582031 354.703125 27.578125 341.777344 21.890625 C 338.085938 20.269531 332.917969 17.125 328.871094 17.125 C 325.539062 17.125 322.203125 17.125 318.871094 17.128906 C 316.324219 17.128906 313.394531 18.214844 310.890625 18.714844 C 307.125 19.464844 303.347656 20.164062 299.566406 20.847656 C 291.363281 22.332031 283.128906 23.632812 274.878906 24.855469 C 258.433594 27.292969 241.921875 29.261719 225.402344 31.152344 C 204.886719 33.5 184.351562 35.695312 163.867188 38.324219 C 145.835938 40.636719 127.929688 43.785156 109.871094 45.894531 C 94.390625 47.703125 78.894531 49.46875 63.613281 52.613281 C 49.824219 55.457031 35.582031 59.613281 24.105469 68.050781 C 23.824219 68.261719 23.765625 68.570312 23.835938 68.839844 C 21.027344 73.984375 17.902344 78.984375 14.945312 84.046875 C 13.945312 85.757812 12.945312 87.46875 11.941406 89.179688 C 11.234375 90.390625 12.882812 92.429688 13.34375 93.40625 C 14.976562 96.863281 16.792969 100.199219 18.703125 103.511719 C 31.765625 126.1875 49.136719 146.183594 68.261719 163.929688 C 87.417969 181.707031 108.679688 197.125 130.34375 211.675781 C 136.425781 215.761719 142.878906 218.851562 149.421875 222.144531 C 152.78125 223.839844 155.976562 223.257812 159.777344 223.207031 C 167.472656 223.105469 175.167969 223.121094 182.863281 223.152344 C 211.300781 223.273438 239.5 223.015625 267.773438 219.5625 C 298.792969 215.777344 329.378906 208.996094 359.542969 200.9375 C 390.324219 192.710938 420.679688 182.984375 451.019531 173.28125 C 454.863281 172.050781 459.15625 171.554688 462.058594 168.652344 C 464.648438 166.0625 467.238281 163.472656 469.828125 160.882812 C 475.816406 154.890625 478.90625 145.089844 478.316406 136.769531" style="fill: rgb(0, 0, 0);"/></g><g id="__id3_ss2qblnjkw"><path d="M 368.320312 151.542969 C 366.917969 151.339844 365.539062 150.933594 364.148438 150.660156 C 357.515625 149.359375 351.015625 147.515625 344.367188 146.273438 C 339.46875 145.355469 334.066406 145.175781 329.339844 146.914062 C 327.015625 147.769531 325.738281 149.628906 324.617188 151.632812 C 324.152344 150.484375 323.371094 149.953125 322.34375 149.59375 C 322.199219 149.058594 322.058594 148.523438 321.914062 147.992188 C 321.832031 147.671875 321.746094 147.351562 321.648438 147.035156 C 322.113281 148.625 322.988281 146.960938 324.421875 146.375 C 326.800781 145.40625 329.519531 145.136719 332.042969 144.875 C 343.125 143.71875 355.4375 141.0625 365.570312 147.074219 C 366.425781 147.582031 372.234375 152.113281 368.320312 151.542969 Z M 320.636719 160.738281 C 318.480469 165.132812 312.875 166.453125 308.484375 165.371094 C 304.511719 164.394531 301.203125 160.378906 298.398438 157.625 C 295.878906 155.148438 293.160156 152.941406 290.175781 151.039062 C 286.085938 148.433594 281.269531 147.332031 276.492188 147.519531 C 281.992188 145.617188 287.5 143.742188 293.003906 141.851562 C 294.203125 141.4375 295.40625 141.023438 296.605469 140.609375 C 296.222656 140.742188 297.050781 140.839844 298.023438 141.277344 C 302.402344 143.242188 306.78125 145.203125 311.15625 147.167969 C 314.613281 148.71875 317.757812 150.578125 321.089844 152.269531 C 321.457031 152.765625 321.820312 153.265625 322.1875 153.757812 C 322.410156 155.804688 321.191406 159.613281 320.636719 160.738281 Z M 371.75 148.332031 C 365.550781 139.390625 351.921875 139.304688 342.425781 140.265625 C 335.230469 140.996094 323.289062 140.042969 318.410156 146.484375 C 318.039062 146.972656 318.136719 147.746094 318.410156 148.242188 C 318.453125 148.324219 318.511719 148.402344 318.554688 148.484375 C 318.335938 148.402344 318.117188 148.320312 317.890625 148.222656 C 312.523438 145.929688 307.15625 143.636719 301.789062 141.34375 C 300.113281 140.628906 297.605469 138.769531 295.738281 139.449219 C 287.890625 142.3125 280.058594 145.234375 272.1875 148.046875 C 271.480469 148.191406 270.773438 148.355469 270.078125 148.554688 C 269.332031 148.769531 269.496094 149.863281 270.261719 149.890625 C 274.9375 150.039062 279.4375 149.925781 283.945312 151.394531 C 289.164062 153.097656 293.351562 156.980469 297.15625 160.777344 C 302.46875 166.074219 307.738281 170.28125 315.589844 168.425781 C 322.089844 166.890625 325.304688 160.554688 325.097656 154.339844 C 325.097656 154.28125 325.089844 154.234375 325.085938 154.175781 C 326.230469 152.484375 327.128906 150.640625 328.855469 149.375 C 331.925781 147.121094 338.320312 147.992188 341.855469 148.503906 C 349.117188 149.558594 356.113281 152.238281 363.292969 153.761719 C 365.664062 154.261719 369.453125 155.835938 371.816406 154.574219 C 374.539062 153.125 373.097656 150.273438 371.75 148.332031" style="fill: rgb(255, 255, 255);"/></g><g id="__id4_ss2qblnjkw"><path d="M 251.046875 161.039062 C 248.628906 156.636719 245.28125 152.632812 242.339844 148.570312 C 238.730469 143.582031 235.066406 138.578125 231.210938 133.753906 C 240.710938 130.777344 250.035156 126.589844 258.597656 124.378906 C 273.597656 120.378906 289.097656 116.878906 304.097656 112.878906 C 309.097656 111.378906 329.203125 109.378906 329.703125 103.878906 L 328.097656 98.878906 C 320.097656 90.378906 312.097656 84.878906 305.097656 75.378906 C 298.097656 65.378906 294.097656 57.878906 281.097656 59.378906 C 267.597656 60.878906 254.597656 64.878906 241.097656 67.378906 C 211.597656 72.378906 181.597656 78.378906 152.097656 82.378906 L 150.597656 83.378906 C 150.097656 96.378906 162.597656 103.378906 171.597656 110.878906 C 181.597656 119.878906 194.097656 135.378906 208.097656 136.878906 C 214.640625 137.648438 221.328125 136.5625 227.96875 134.714844 C 232.394531 139.589844 236.683594 144.582031 240.835938 149.726562 C 244.597656 154.386719 248.488281 158.964844 251.578125 164.105469 C 253.617188 167.5 255.679688 170.519531 259.074219 172.652344 C 259.308594 172.796875 259.507812 172.441406 259.289062 172.285156 C 255.269531 169.472656 253.335938 165.207031 251.046875 161.039062" style="fill: rgb(255, 255, 255);"/></g><g id="__id5_ss2qblnjkw"><path d="M 447.914062 152.222656 C 436.234375 154.699219 424.785156 158.15625 413.175781 160.941406 C 400.894531 163.886719 388.515625 166.417969 376.101562 168.757812 C 351.816406 173.332031 327.375 177.019531 302.996094 181.0625 C 277.847656 185.234375 252.8125 190.058594 227.617188 193.984375 C 215.960938 195.796875 204.226562 197.101562 192.601562 199.125 C 182.179688 200.941406 170.722656 203.234375 160.402344 199.761719 C 158.976562 199.28125 158.382812 201.511719 159.785156 201.996094 C 168.597656 205.054688 178.148438 203.917969 187.183594 202.628906 C 198.304688 201.039062 209.417969 199.410156 220.542969 197.832031 C 247.15625 194.058594 273.554688 189.046875 300.054688 184.585938 C 325.046875 180.378906 350.113281 176.617188 375.035156 172.015625 C 399.503906 167.496094 425.421875 163.207031 448.4375 153.464844 C 449.183594 153.148438 448.625 152.070312 447.914062 152.222656" style="fill: rgb(0, 0, 0);"/></g><g id="__id6_ss2qblnjkw"><path d="M 91 129.96875 C 80.660156 120.945312 70.398438 111.804688 60.554688 102.242188 C 55.703125 97.527344 51.003906 92.660156 46.425781 87.679688 C 42.023438 82.890625 36.433594 78.128906 33.800781 72.085938 C 33.1875 70.679688 30.734375 71.710938 31.316406 73.136719 C 33.164062 77.628906 36.3125 81.019531 39.546875 84.574219 C 44.457031 89.96875 49.21875 95.460938 54.296875 100.703125 C 64.683594 111.414062 75.769531 121.425781 86.9375 131.308594 C 98.023438 141.117188 109.292969 150.722656 120.679688 160.179688 C 132.15625 169.707031 143.566406 179.550781 155.738281 188.179688 C 156.894531 188.996094 158.234375 187.191406 157.230469 186.246094 C 136.183594 166.4375 112.777344 148.980469 91 129.96875" style="fill: rgb(0, 0, 0);"/></g><g clip-path="url(#__id0_ss2qblnjkw)" id="__id7_ss2qblnjkw"><path d="M 130.34375 211.675781 C 108.675781 197.128906 87.417969 181.707031 68.261719 163.933594 C 49.136719 146.183594 31.765625 126.1875 18.703125 103.511719 C 16.792969 100.199219 14.976562 96.863281 13.34375 93.40625 C 12.996094 92.671875 11.976562 91.335938 11.796875 90.203125 C 6.566406 90.894531 1.945312 93.902344 0.0742188 98.976562 C -0.253906 99.867188 0.578125 100.710938 1.417969 100.742188 C 4.457031 100.863281 7.449219 101 10.390625 101.640625 C 8.601562 103.660156 7.300781 106.019531 9.730469 108.265625 C 11.054688 109.484375 12.585938 110.828125 14.15625 111.695312 C 15.09375 112.210938 20.84375 112.210938 17.558594 115.800781 C 16.980469 116.433594 16.132812 116.949219 15.71875 117.722656 C 14.171875 120.589844 16.804688 123.191406 19.066406 124.71875 C 23.605469 127.792969 28.757812 128.203125 24.53125 134.824219 C 24.113281 135.480469 24.503906 136.511719 25.285156 136.675781 C 28.675781 137.375 37.449219 135.59375 37.703125 141.027344 C 37.851562 144.199219 35.949219 146.507812 38.46875 149.21875 C 40.09375 150.960938 42.707031 151.644531 44.933594 152.160156 C 46.160156 152.445312 47.390625 152.683594 48.597656 153.054688 C 51.972656 154.089844 50.261719 157.8125 49.285156 160.039062 C 48.980469 160.730469 49.167969 161.6875 50.03125 161.875 C 53.542969 162.636719 65.34375 163.375 61.546875 169.105469 C 61.046875 169.859375 61.589844 170.710938 62.316406 170.996094 C 64.28125 171.769531 66.449219 171.917969 68.507812 172.328125 C 71.867188 173 70.832031 175.488281 71.832031 177.640625 C 73.023438 180.210938 77.558594 182.324219 80.011719 183.136719 C 81.085938 183.488281 85.09375 183.839844 85.179688 185.226562 C 85.238281 186.214844 85.160156 187.21875 85.207031 188.207031 C 85.265625 189.515625 85.644531 191.132812 86.621094 192.09375 C 89.980469 195.40625 101.875 193.984375 95.773438 201.625 C 95.230469 202.308594 95.097656 203.582031 96.082031 204.019531 C 98.96875 205.292969 102.140625 205.574219 105.230469 206.074219 C 106.902344 206.34375 108.636719 206.644531 110.199219 207.324219 C 112.921875 208.507812 109.335938 211.261719 108.191406 212.285156 C 107.257812 213.121094 107.828125 214.566406 108.886719 214.917969 C 112.042969 215.972656 115.488281 216.050781 118.78125 216.316406 C 120.410156 216.445312 122.035156 216.597656 123.609375 217.046875 C 123.777344 217.09375 118.132812 221.09375 117.566406 221.417969 C 116.191406 222.207031 116.773438 224.441406 118.375 224.410156 C 129.332031 224.191406 140.308594 223.523438 151.257812 222.84375 C 150.648438 222.667969 150.039062 222.453125 149.421875 222.144531 C 142.878906 218.851562 136.425781 215.761719 130.34375 211.675781" style="fill: rgb(0, 0, 0);"/></g><g clip-path="url(#__id1_ss2qblnjkw)" id="__id8_ss2qblnjkw"><path d="M 492.300781 132.238281 C 490.269531 132.304688 486.925781 131.351562 484.078125 131.125 C 485.421875 129.707031 486.511719 128.066406 485.980469 126.375 C 484.972656 123.136719 479.644531 124.148438 477.238281 122.628906 C 481.265625 119.285156 477.8125 114.621094 473.214844 112.710938 C 471.898438 112.160156 472.851562 111.046875 472.738281 109.539062 C 472.640625 108.1875 471.734375 107.140625 470.796875 106.265625 C 469.121094 104.695312 466.59375 104.351562 464.289062 104.273438 C 464.6875 102.832031 464.925781 101.441406 463.683594 100.195312 C 461.453125 97.96875 458.316406 98.390625 455.402344 98.265625 C 456.144531 96.355469 456.96875 94.492188 454.351562 93.191406 C 453.027344 92.53125 451.910156 92.308594 450.4375 92.234375 C 450.171875 92.222656 446.710938 92.441406 446.695312 92.410156 C 446.820312 92.664062 449.265625 90.566406 449.4375 90.417969 C 450.058594 89.902344 449.867188 88.765625 449.179688 88.40625 C 447.828125 87.699219 444.589844 86.398438 442.140625 86.285156 C 442.390625 83.675781 441.351562 81.863281 438.253906 80.984375 C 437.257812 80.699219 436.171875 80.609375 435.148438 80.453125 C 434.25 80.320312 433.921875 80.371094 433.839844 80.394531 C 433.890625 80.371094 434 80.289062 434.054688 80.0625 C 434.40625 78.660156 434.566406 76.84375 433.269531 75.800781 C 431.835938 74.652344 430.320312 74.152344 428.535156 73.734375 C 427.503906 73.492188 426.445312 73.339844 425.402344 73.152344 C 423.171875 72.753906 424.921875 73.277344 424.796875 72.480469 C 424.214844 68.828125 421.855469 67.972656 418.898438 67.570312 C 420.792969 63.574219 415.988281 61.308594 411.726562 60.296875 C 411.90625 60.117188 412.082031 59.941406 412.261719 59.765625 C 412.980469 59.246094 413.242188 57.941406 412.261719 57.488281 C 409.523438 56.222656 406.71875 55.246094 403.839844 54.351562 C 403.617188 54.527344 403.390625 54.699219 403.167969 54.875 C 403.09375 54.160156 403.070312 53.445312 403.09375 52.726562 C 403.09375 51.902344 403.253906 51.078125 403.125 50.257812 C 402.496094 46.222656 393.0625 47.984375 396.207031 43.527344 C 396.738281 42.773438 396.136719 41.929688 395.4375 41.636719 C 393.875 40.980469 392.382812 40.914062 390.703125 40.863281 C 386.777344 40.75 386.910156 38.003906 388.136719 35.484375 C 388.53125 34.667969 388.058594 33.691406 387.097656 33.671875 C 378.324219 33.507812 368.875 28.679688 360.121094 31.015625 C 366.496094 34.542969 372.722656 38.34375 378.800781 42.359375 C 401.277344 57.203125 421.074219 74.976562 442.0625 91.726562 C 456.011719 102.863281 476.925781 117.035156 478.320312 136.769531 C 478.699219 142.128906 477.539062 148.105469 475.070312 153.28125 C 481.035156 146.875 486.9375 140.410156 493.117188 134.214844 C 493.8125 133.519531 493.324219 132.207031 492.300781 132.238281" style="fill: rgb(0, 0, 0);"/></g><g id="__id9_ss2qblnjkw"><path d="M 137.386719 71.347656 C 151.203125 67.921875 165.117188 65.261719 179.214844 63.285156 C 209.738281 59.015625 239.929688 52.335938 270.566406 48.910156 C 278.558594 48.015625 286.574219 47.292969 294.613281 47.019531 C 298.175781 46.902344 300.328125 47.148438 303.011719 47.984375 C 306.167969 45.515625 308.703125 41.222656 310.78125 38.441406 C 315.539062 32.058594 319.65625 25.15625 323.390625 18.136719 C 325.761719 14.148438 331.621094 5.65625 326.53125 1.550781 C 322.511719 -1.6875 313.933594 1.023438 309.273438 1.71875 C 279.894531 6.09375 250.128906 6.148438 220.820312 11.261719 C 206.324219 13.789062 192.015625 17.332031 177.695312 20.695312 C 173.46875 21.6875 169.460938 22.199219 165.90625 24.765625 C 162.609375 27.144531 159.84375 30.222656 157.253906 33.328125 C 147.476562 45.070312 140.066406 59.101562 133.628906 72.902344 C 133.527344 73.125 133.492188 73.367188 133.496094 73.609375 C 134.097656 72.402344 135.140625 71.90625 137.386719 71.347656" style="fill: rgb(0, 0, 0);"/></g><g id="__id10_ss2qblnjkw"><path d="M 329.808594 103.320312 C 329.5 102.007812 329.460938 100.378906 329.347656 99.089844 C 329.21875 97.589844 327.648438 96.21875 326.738281 95.117188 C 322.109375 89.5 315.777344 85.109375 310.800781 79.75 C 303.960938 72.367188 299.898438 61.300781 289.5 58.1875 C 284.347656 56.640625 278.480469 58 273.339844 58.847656 C 265.417969 60.148438 257.628906 62.15625 249.800781 63.917969 C 234.019531 67.480469 217.910156 69.828125 201.988281 72.6875 C 185.910156 75.578125 169.800781 78.367188 153.617188 80.648438 C 143.777344 82.039062 151.910156 95.097656 155.597656 99.308594 C 159.050781 103.25 163.449219 106.328125 167.558594 109.519531 C 172.269531 113.167969 176.378906 117.480469 180.648438 121.609375 C 188.128906 128.839844 197.21875 137.25 208.097656 138.269531 C 215.25 138.9375 222.199219 137.757812 229 135.820312 C 228.328125 135.058594 227.640625 134.308594 226.949219 133.570312 C 225.929688 133.847656 224.898438 134.109375 223.859375 134.359375 C 217.140625 135.957031 209.9375 136.46875 203.289062 134.347656 C 196.667969 132.25 191 127.257812 185.96875 122.679688 C 181.71875 118.808594 177.757812 114.640625 173.570312 110.710938 C 169.449219 106.839844 164.648438 103.738281 160.449219 99.949219 C 155.9375 95.878906 152.519531 90.949219 152.097656 84.75 C 152 83.230469 158.429688 83.019531 160.210938 82.769531 C 164.730469 82.117188 169.230469 81.417969 173.738281 80.699219 C 205.597656 75.640625 237.1875 69.519531 268.757812 63.007812 C 275.867188 61.550781 284.449219 59.128906 291.367188 62.367188 C 296.519531 64.777344 299.757812 70.539062 302.847656 75.019531 C 306.820312 80.769531 311.789062 85.648438 316.898438 90.378906 C 320.910156 94.097656 327.277344 98.089844 329.300781 103.4375 C 329.230469 103.507812 329.167969 103.597656 329.140625 103.71875 C 328.277344 107.347656 321.347656 108.277344 318.339844 108.96875 C 314.117188 109.929688 309.816406 110.539062 305.578125 111.378906 C 291.539062 114.179688 277.558594 118.199219 263.667969 121.71875 C 252.300781 124.597656 241.507812 129.277344 230.289062 132.609375 C 230.910156 133.359375 231.507812 134.117188 232.109375 134.878906 C 236.050781 133.628906 239.9375 132.179688 243.789062 130.738281 C 257.050781 125.789062 270.710938 122.550781 284.417969 119.140625 C 294.460938 116.640625 304.398438 113.898438 314.527344 111.800781 C 318.667969 110.949219 329.339844 109.507812 330.269531 104.039062 C 330.328125 103.660156 330.089844 103.398438 329.808594 103.320312" style="fill: rgb(0, 0, 0);"/></g><g id="__id11_ss2qblnjkw"><path d="M 293.625 84.144531 C 285.0625 76.679688 275.117188 73.785156 264 74.914062 C 258.433594 75.476562 252.914062 76.5 247.390625 77.378906 C 240.578125 78.464844 233.707031 78.75 226.859375 79.535156 C 220.460938 80.269531 214.085938 81.273438 207.695312 82.105469 C 202.308594 82.808594 196.847656 83.632812 191.785156 85.6875 C 189.4375 86.640625 190.464844 90.5 192.847656 89.53125 C 202.675781 85.535156 214.621094 84.867188 225.089844 83.476562 C 235.808594 82.054688 246.488281 81.210938 257.183594 79.53125 C 262.355469 78.71875 267.605469 77.984375 272.851562 78.25 C 278.765625 78.554688 284.640625 81.703125 289.476562 84.875 C 292.285156 86.722656 295.082031 89.28125 296.292969 92.472656 C 296.496094 93.015625 296.5625 93.527344 296.523438 94.015625 C 297.394531 94.683594 298.265625 95.351562 299.144531 96.015625 C 299.1875 95.878906 299.230469 95.742188 299.261719 95.597656 C 300.28125 90.785156 297.050781 87.132812 293.625 84.144531" style="fill: rgb(0, 0, 0);"/></g><g id="__id12_ss2qblnjkw"><path d="M 204.523438 117.394531 C 198.210938 115.820312 193.3125 110.636719 189.082031 105.96875 C 186.765625 103.410156 184.503906 100.53125 183.238281 97.285156 C 182.511719 95.421875 182.792969 94.191406 183.671875 93.320312 C 183.757812 93.132812 183.886719 93.039062 184.035156 93.011719 C 184.863281 92.378906 186.042969 91.960938 187.378906 91.621094 C 188.589844 91.3125 188.304688 89.5 187.085938 89.480469 C 181.324219 89.386719 178.515625 93.382812 180.605469 98.75 C 183.132812 105.253906 189.078125 110.800781 194.300781 115.179688 C 200.347656 120.25 207.894531 122.042969 215.863281 122.066406 C 214.691406 120.90625 213.488281 119.734375 212.261719 118.574219 C 209.660156 118.398438 207.070312 118.027344 204.523438 117.394531" style="fill: rgb(0, 0, 0);"/></g><g id="__id13_ss2qblnjkw"><path d="M 324.136719 109.46875 C 325.933594 110.226562 327.746094 110.988281 329.570312 111.753906 C 327.746094 110.988281 325.933594 110.226562 324.136719 109.46875 Z M 334.8125 113.996094 C 334.691406 113.941406 334.566406 113.890625 334.445312 113.835938 C 334.566406 113.890625 334.691406 113.941406 334.8125 113.996094 Z M 340.070312 116.359375 C 339.992188 116.320312 339.910156 116.285156 339.828125 116.246094 C 339.910156 116.285156 339.992188 116.320312 340.070312 116.359375 Z M 373.3125 151.339844 C 370.929688 135.261719 359.027344 125.910156 344.976562 118.746094 C 345.035156 118.777344 345.097656 118.804688 345.15625 118.832031 C 346.4375 118.496094 347.714844 118.160156 348.992188 117.824219 C 349.148438 117.78125 349.277344 117.722656 349.394531 117.652344 C 356.757812 114.453125 354.152344 107.335938 350.515625 102.085938 C 344.902344 93.992188 337.222656 87.003906 330.921875 79.449219 C 326.089844 73.660156 321.40625 67.75 316.777344 61.792969 C 314.160156 58.425781 311.585938 55.023438 309.019531 51.621094 C 307.796875 50 307.527344 49.636719 305.808594 48.972656 C 301.554688 47.335938 299.3125 46.863281 294.613281 47.019531 C 286.574219 47.289062 278.558594 48.015625 270.566406 48.90625 C 239.929688 52.332031 209.738281 59.011719 179.214844 63.285156 C 165.117188 65.261719 151.203125 67.921875 137.386719 71.347656 C 133.941406 72.203125 133.3125 72.902344 132.796875 76.265625 C 132.21875 80.03125 132.050781 82.617188 133.261719 86.339844 C 136.011719 94.785156 142.550781 102.085938 148.46875 108.480469 C 154.835938 115.359375 161.964844 121.453125 168.722656 127.929688 C 175.902344 134.800781 183.238281 141.777344 191.847656 146.847656 C 200.265625 151.800781 210.546875 151.378906 219.921875 150.109375 C 226.089844 149.273438 232.164062 147.988281 238.210938 146.558594 C 235.195312 142.914062 232.132812 139.320312 228.976562 135.8125 C 222.1875 137.746094 215.246094 138.929688 208.097656 138.265625 C 197.222656 137.25 188.132812 128.839844 180.65625 121.609375 C 176.378906 117.476562 172.273438 113.164062 167.5625 109.515625 C 163.449219 106.324219 159.050781 103.242188 155.601562 99.308594 C 151.910156 95.101562 143.785156 82.03125 153.617188 80.644531 C 169.804688 78.363281 185.910156 75.582031 201.996094 72.6875 C 217.914062 69.820312 234.027344 67.476562 249.804688 63.917969 C 257.628906 62.152344 265.425781 60.144531 273.34375 58.84375 C 278.488281 57.996094 284.355469 56.640625 289.503906 58.179688 C 299.90625 61.300781 303.964844 72.371094 310.808594 79.746094 C 315.777344 85.101562 322.117188 89.492188 326.742188 95.113281 C 327.648438 96.214844 329.226562 97.585938 329.355469 99.089844 C 329.46875 100.375 329.5 102.011719 329.808594 103.320312 C 330.089844 103.394531 330.335938 103.660156 330.273438 104.03125 C 329.832031 106.625 327.207031 108.3125 324.128906 109.460938 C 317.316406 106.578125 310.808594 103.707031 305.382812 100.363281 C 297.574219 95.554688 291.507812 88.953125 282.804688 85.445312 C 273.867188 81.84375 264.542969 80.921875 254.980469 81.589844 C 244.9375 82.296875 235.042969 84.675781 225.210938 86.714844 C 212.15625 89.421875 198.8125 90.378906 185.8125 93.316406 C 184.28125 93.664062 184.265625 95.652344 185.40625 96.425781 C 191.878906 100.808594 198.871094 104.414062 205.347656 108.789062 C 214.660156 118.214844 224.585938 127.066406 233.410156 136.960938 C 241.234375 145.730469 245.847656 156.222656 252.738281 165.605469 C 254.664062 168.226562 263.660156 179.457031 265.792969 171.691406 C 266.34375 169.679688 266.261719 167.4375 266.570312 165.386719 C 267.085938 161.976562 269.742188 158.996094 271.933594 156.519531 C 276.648438 151.191406 283.601562 147.890625 290.160156 151.703125 C 297.542969 155.992188 302.394531 163.941406 310.664062 166.828125 C 316.097656 168.726562 321.917969 165.261719 323.613281 160.046875 C 325.710938 153.589844 322.992188 147.207031 332.464844 147.3125 C 338.484375 147.378906 344.703125 148.554688 350.730469 148.980469 C 357.628906 149.464844 364.679688 150.125 371.007812 153.113281 C 372.324219 153.738281 373.519531 152.730469 373.3125 151.339844" style="fill: rgb(255, 255, 255);"/></g></g></svg>