
<svg xmlns="http://www.w3.org/2000/svg" xmlns:xlink="http://www.w3.org/1999/xlink" data-name="Layer 1" preserveAspectRatio="xMidYMid meet" version="1.0" viewBox="-0.2 -3.9 501.5 467.5" zoomAndPan="magnify" style="fill: rgb(0, 0, 0);" original_string_length="5657"><g id="__id18_ss2qblnjkw"><path d="m487.9,225.02c1.36-15.27,2.13-28.56,4.31-43.19,3.12-20.86,9.04-40.11,7.56-68-3.53-4.02-2.6-12.52-3.23-19.43-14.17-24.18-16.39-40.96-10.79-69.09.2-.98,4.04-4.87,2.16-9.71-2.34-4.86-6.56-7.83-7.55-14.03-22.31-5.49-37.39,4.88-55.05,7.55-8.09,6.31-24.51,4.29-32.38,10.8-38.76,12.32-52.05,50.13-89.59,63.69-12.38-8.5-29.09-.74-37.78,6.47-5.9-14.98-24.93-23.48-43.17-14.02-.91,4.49-5,5.8-8.64,7.56-13.43-9.94-27.79-18.95-43.76-26.35-1.88-2.48-2.94-5.6-5.91-6.99,0-.06,0-.08.01-.12-23.06-8.59-35.54-27.78-63.69-31.31,1.68-3.83-3.66-.64-3.23-3.24-22.69-7.17-53.81-5.92-78.8-10.79-3.3,1.02-3.49,5.16-6.48,6.48-1.26,5.58-1.6,14.68,2.15,20.51,3.11,17.25-.91,31.6-6.48,43.18-.15,5.6-.72,10.78-4.32,12.95,1.39,6.99-1.04,7.74-3.24,12.96v29.15c1.09,2.14,4.77,1.7,4.32,5.39-4.54,15.61,24.86,43.44,6.48,63.69-2.52,40.35,45.14,34.89,80.95,33.46,10.94-3.8,25.03-10.23,34.54-11.88-6.01,6.59-15.73,9.47-18.35,19.44-22.6,13.73-31.79,40.87-47.49,61.51-5.82,17.21-13.47,32.59-22.67,46.41-5.68,27.42-17.5,48.72-18.35,80.95,4.84-.16,4.91,4.44,10.8,3.25,14.83-25.47,40.34-40.25,70.16-50.74,8.62,36.72,29.37,61.3,53.97,82.03.17-1.25,1.97-.9,3.24-1.07-.78-34.58,6.49-68.55,8.64-103.62,3.54-2.57,3.32-8.9,3.24-15.11,9.39-26.95,15.5-57.18,25.91-83.12,16.72-18.53,22.87-47.65,37.78-68,8.57-.06,8.77-8.5,17.27-8.63,7.3,6.01,15.95,10.68,31.3,8.63,6.76,9.67,16.39,17.11,21.59,28.06,3.27,6.89,8.54,15.92,11.88,22.67.57,1.16-.57,3.16,0,4.31,13.31,27.05,29.21,57.37,37.78,88.52,5.03,18.27,8.81,36.05,12.95,55.04,2.44,11.19,9.28,27.34,7.56,44.27,3.27,6.08,4.99,13.71,7.56,20.5,17.19,2.08,12.99-17.23,21.59-23.74,1.38-23.74,16.27-38.26,10.86-65.45.08-.06.15-.13.21-.21,8.37,4.99,12.75,15.95,19.15,24.63,2.66,3.62,8.11,6.8,10.8,10.8,9.16,13.67,23.83,28.68,31.3,45.33,5.46-.07,6.18,1.36,10.8,0,9.14-33.38-4.94-70.26-7.56-102.54.32-2.83-4.19-.85-3.24-4.32-9.11-45.94-32.81-77.29-57.2-107.94,27.67,1.24,49.31,2.68,70.16-7.55Zm-398.3-3.23c-20.22,4.47-45.33,8.91-62.61,0-5.32-12.02,3.36-22.35,5.39-33.47-4.47-17.84-13.11-31.49-20.5-46.41-6.66-29.55,3.66-52.58,12.95-74.47,5.08-20.84-9.14-34.22-3.24-51.82,15.49-.21,36.82-.25,42.1,3.24,7.78-2.15,28.44,5.1,38.86,8.64,38.44,13.05,70.72,48.52,106.86,61.53-5.62,7.4-11.27,26.05-7.56,35.62-15.74.17-29.69-12.34-48.57-10.8-7.53.6-13.84,5.2-22.67,4.32-.04,4.37,5.57,3.07,7.56,5.4,21.9-8.61,48.84.99,64.76,8.64,5.57,13.03-.24,29.78,3.24,41.01-.8,2.45-6.05.42-8.64,1.09-41.28,10.52-74.66,28.97-107.94,47.5Zm57.21,223.44c-19.11-20.48-33.85-45.32-46.42-72.33h-3.23c-.06,1.38-1.39,1.49-1.08,3.24-24.11,2.87-35.27,18.7-52.9,28.07-.01.16-.05.33-.06.49-.03-.18-.09-.34-.18-.49h.24c4.15-11.35,6.96-22.16,9.72-33.46,10.2-41.87,35.54-75.17,52.89-110.11,6.69-4.11,10.76-10.81,14.03-18.35,1.41-1.1,3.98-1.06,5.4-2.15,3.13-11.98,17.65-12.58,21.59-23.76,12.52-4.38,17.69-16.13,26.99-23.75,17.46.61,18.84-10.26,36.7-7.55,2.43,5.48,7.8,8.03,15.11,8.64-43.79,66.31-74.04,146.16-78.79,251.5Zm133.85-260.14c-11.16,1.09-18.95-1.2-25.9-4.33,1.97-5.08,7.94-11.17,4.32-18.34-7.86,12.24-21.13,23.77-38.86,22.67-.78-3.3,1.1-3.94,1.08-6.48-1.33-1.55-3.71-2.05-6.47-2.16.92-9.34,4.43-14.29,5.4-18.35.6-2.4-2.06-1.54-2.16-3.24-4.19-16.75-12.95-39.29-3.23-57.21,4.39-2.81,7.1-7.29,7.56-14.03,2.35.19,3.43-.89,3.23-3.24,8.58-.38,14.17-3.77,21.59,0-9.26,24.92-5.18,41.07,4.32,63.69,2.11-10.41-4.01-21.89-6.48-31.3,4.5-6.66,5.33-16.98,7.56-25.91,5.65,1.54,6.59,7.81,10.79,10.8,2.31.49,2.06-1.54,2.16-3.24h6.48c6.25-11.73,29.03-8.6,32.38,3.24,2.26,9.3-.11,17-1.08,25.9-10.42,15.84-20.96,31.58-20.51,58.29-2.3-.5-2.06,1.56-2.16,3.25Zm182.42,167.3c4.86,3.43,1.73,14.82,6.48,18.36-4.6,15.83,4.4,35.58,4.32,53.97-18.42-23.68-38-46.2-59.37-66.92h-8.64c2.8,29.72-6.05,56.33-17.27,75.55,1.66-21.44-7.45-32.13-8.64-50.73-8.02-15.01-9.94-40.63-19.43-57.21v-6.48c-14.63-26.03-21.33-59.98-39.94-82.03.12-1.32.32-2.56,2.16-2.16-9.56-11.59-15.33-26.96-24.72-38.73.03-.04.07-.07.1-.1,4.35.8,5.7-1.38,7.35-3.27,25.69,8.12,49.28,18.36,74.48,26.99-.82,4.07,5.73.74,4.32,5.4,7.26-.8,10,2.94,17.27,2.15,25.08,36.56,50.47,78.2,61.52,125.21Zm-66.92-137.08c-11.68-2.4-22.96-10.56-34.54-15.12-12.49-4.91-25.27-7.84-35.62-11.87-7.03-2.74-21.39-8.02-35.62-6.48,4.79-13.17,4.5-18.87,10.79-31.3,6.43,5.38,20.78,13.5,33.46,15.11,10.11,1.28,23.82.8,26.99-8.64-17.08,5.13-45.26.27-58.29-8.64-.47-4.42,1-6.92,2.16-9.72,6.81-.32,12.78.17,18.35,1.09-.68-5.81-10.66-2.29-16.19-3.25-.54-5.58,5.02-5.05,3.24-11.86,10.31-3.01,17.83-8.8,29.15-10.8,15.43-.41,30-1.67,46.41-1.08-17.71-12.61-54.63-4.87-73.4,1.08,1.31-9.59-2.13-14.42-2.16-22.67,4.73-.41,6.02-5.93,10.8-3.24,2.03-2.28,4.27-4.36,5.4-7.55,6.69.58,8.24-3.99,10.79-7.56,19.69-4.41,23.29-24.92,41.02-31.3.86-2.01,1.8-3.96,2.16-6.48,19.27-9.87,44.35-13.93,68-19.43,3.52.28,3.12-3.36,5.4-4.32,10.76,2.31,16.48-5.6,23.75-3.25-2.06,26.2-8.44,47.79-1.08,73.4,6.44,7.6,2.72,25.34,7.56,34.54-3.33,27.25-18.44,62.09-6.48,90.67-1.86,4.43.71,6.97-1.08,11.87-28.09,5.54-55.17,2.07-80.96-3.24Z" fill-rule="evenodd" style="fill: rgb(0, 0, 0);"/></g><g id="__id19_ss2qblnjkw"><path d="m266.62,101.97c5.57,5.94,4.08,18.94,4.31,30.22,12.21-2.56,4.9-32.81-4.31-30.22Z" fill-rule="evenodd" style="fill: rgb(0, 0, 0);"/></g><g id="__id20_ss2qblnjkw"><path d="m153.28,153.78c13.96,11.98,38.55-.15,48.57-8.64-12.79-2.77-30.72,12.93-48.57,8.64Z" fill-rule="evenodd" style="fill: rgb(0, 0, 0);"/></g></svg>