
<svg xmlns="http://www.w3.org/2000/svg" xmlns:xlink="http://www.w3.org/1999/xlink" version="1.1" x="0px" y="0px" viewBox="-213.8 236.1 60.6 66.2" enable-background="new -213.8 236.1 60.6 66.2" xml:space="preserve" style="fill: rgb(0, 0, 0);" original_string_length="3301">
<g id="__id14_s3wn28xrff">
	<g id="__id15_s3wn28xrff"><path id="__id16_s3wn28xrff" d="M-153.3,244.7c-0.2-0.5-0.6-0.9-1.4-1.2c-3-1.2-6-2.5-9.1-3.7c-3-1.2-6.4-2-9.3-3.5   c-0.4-0.1-0.8-0.3-1.2-0.1c-0.5,0.2-0.8,0.8-1,1.3c-1.4,3.4-5,5.8-8.6,5.8c-3.7,0-7.2-2.5-8.5-6c-0.1-0.3-0.2-0.6-0.5-0.7   c-0.2-0.1-0.5,0-0.7,0.1c-6.5,2.2-13,4.5-19.5,6.9c-0.3,0.1-0.7,0.3-0.8,0.6c-0.1,0.2,0,0.4,0,0.7c1.1,4.2,2.2,8.3,3.4,12.5   c0.5,1.7,1.6,0.8,2.7,0.4c1.5-0.6,3.2-1,4.8-1.5c-0.5,0.2-0.6,6.5-0.6,7.3c-0.2,2.7-0.3,5.4-0.3,8.1c-0.1,5.2,0.1,10.5,0.5,15.7   c0,0.3,0.1,0.6,0.2,0.9c0.4,0.6,1.7,0.8,2.3,1.1c2.2,1,4.1,2.7,5.2,4.9c1.1,2.1,1.5,4.5,2,6.8c0.5,2,4.4,1.2,5.9,1.2   c1,0,13.2-0.3,13.2-0.6c-0.2-2.5-0.2-4.9,1.3-7.1c1-1.5,2.6-2.3,4.3-2.9c1.5-0.6,3.5-0.9,3.9-2.7c0.3-1.4-0.1-3.2-0.2-4.5   c0-9.2-0.2-18.3,0.8-27.5c1.5,1,3.1,1.7,4.8,2.1c0.4,0.1,0.8,0.2,1.2,0.1c1.7-0.4,2.9-4.3,3.5-5.7c0.9-2.4,1.6-4.9,1.8-7.5   C-153.2,245.3-153.2,245-153.3,244.7z M-159.1,257.8c-1.1-0.6-2.3-1.1-3.5-1.5c-1.1-0.4-1.7-0.5-2.6-0.3c-0.1,0-0.2,0.1-0.3,0.3   c-2,10.3-2.5,22.2-0.7,32.6c-3,0.6-6.5,2.4-8.3,4.9c-1.2,1.7-1.9,4.2-1.2,6.2c-2.2,0.9-6.4,0.3-8.8,0.3c-2.6,0.1-5.3,0-7.9,0.4   c-0.8-5.3-3.1-12.8-9.4-13.1c-0.2,0,0.3-16.8,0.3-18.3c0-3.1,0-6.3-0.1-9.4c0-1,0.3-3.6-0.3-4.3c-1-1.2-3.1,0.4-4.1,0.8   c-0.9,0.3-1.8,0.5-2.7,0.9c0.8-0.3-2.8-10.9-3.6-12c3.5-0.7,6.9-2.3,10.2-3.5c2.9-1.1,6-2.1,8.8-3.5c0.7,9,19.1,8.9,19.7-1   c5.5,3.8,12.7,5.7,19,7.9c0.3,0.1-1.4,6.2-1.6,6.8C-157,253.9-157.8,256-159.1,257.8z" style="fill: rgb(0, 0, 0);"/></g>
	<g id="__id17_s3wn28xrff"><path d="M-176.2,262.6c-1.4-2.3-5.7-2.1-7.3,0c-0.5-1-1.5-1.7-2.8-1.9c-2.5-0.4-5.1,1-5.3,3.7   c-0.1,1.6,0.8,2.8,1.9,4c1.6,1.7,5.6,6.2,8.2,4.6C-178.6,271.3-173.9,266.4-176.2,262.6z M-190.2,265.4c-0.1-0.3-0.2-0.7-0.1-1   c0.1-0.6,0.7-1.2,1.3-1.6C-189.4,263.6-189.8,264.5-190.2,265.4z M-189.6,266.4c0.6-1.4,1.2-2.7,1.9-4.1c0,0,0,0,0-0.1   c0,0,0.1,0,0.1,0c0.1,0,0.3,0,0.5,0c-0.7,1.5-1.4,3.1-2.1,4.6C-189.4,266.7-189.5,266.5-189.6,266.4z M-188.3,267.9   c-0.1-0.1-0.3-0.2-0.4-0.4c0.7-1.7,1.5-3.4,2.3-5c0.2,0.1,0.3,0.2,0.5,0.3C-186.7,264.5-187.5,266.2-188.3,267.9z M-187.6,268.5   c0.8-1.7,1.6-3.4,2.4-5.2c0.2,0.2,0.3,0.3,0.4,0.5c-0.7,1.7-1.7,3.3-2.2,5.2C-187.1,268.8-187.4,268.7-187.6,268.5z M-186.3,269.6   c0.1-0.1,0.1-0.1,0.2-0.2c0.4-1.6,1.2-3.1,1.9-4.6c0.2,0.1,0.5,0.1,0.6,0c0,0,0,0,0,0c-0.8,1.7-1.6,3.4-2.4,5.1   C-186,269.7-186.2,269.6-186.3,269.6z M-185.2,270.3c1-2.2,2.1-4.4,3.1-6.7c0.1-0.1,0.1-0.2,0-0.3c0.4-0.3,0.8-0.5,1.4-0.7   c-1.1,2.8-2.8,5.3-4,8C-184.9,270.6-185,270.4-185.2,270.3z M-184,271.2C-184,271.2-184,271.2-184,271.2c1.3-3,3.1-5.7,4.3-8.7   c0.2,0,0.5,0,0.7,0.1c-1.4,3-2.9,6-4.6,8.8C-183.8,271.4-183.9,271.3-184,271.2z M-182.7,272c0,0-0.1,0.1-0.1,0.1   c-0.1,0-0.1-0.1-0.2-0.1c1.7-2.9,3.3-5.9,4.7-9c0.2,0.1,0.4,0.3,0.5,0.5c-1.1,2.3-2.1,4.6-3.2,6.9   C-181.6,270.8-182.2,271.4-182.7,272z M-177.3,265.9c-0.4,1.1-1.1,2-1.9,2.8c0.7-1.4,1.3-2.9,2-4.3   C-177.1,264.9-177.2,265.4-177.3,265.9z" style="fill: rgb(0, 0, 0);"/></g>
</g>
</svg>