<svg
                  
                  xmlns="http://www.w3.org/2000/svg"
                  viewBox="0 0 48 48"
                  width="48"
                  height="48"
                >
                  <path
                    fill="#47BA7E"
                    d="M16,48c4.4,0,8-3.6,8-8v-8h-8c-4.4,0-8,3.6-8,8S11.6,48,16,48L16,48L16,48z"
                  />
                  <path
                    fill="#8062AA"
                    d="M8,24c0-4.4,3.6-8,8-8h8v16h-8C11.6,32,8,28.4,8,24L8,24L8,24z"
                  />
                  <path
                    fill="#F04F23"
                    d="M8,8c0-4.4,3.6-8,8-8h8v16h-8C11.6,16,8,12.4,8,8L8,8z"
                  />
                  <path
                    fill="#F37264"
                    d="M24,0h8c4.4,0,8,3.6,8,8c0,4.4-3.6,8-8,8h-8V0L24,0z"
                  />
                  <path
                    fill="#46B8E9"
                    d="M40,24c0,4.4-3.6,8-8,8s-8-3.6-8-8c0-4.4,3.6-8,8-8S40,19.6,40,24L40,24z"
                  />
                </svg>